# xmcd CD database file
#
# Track frame offsets:
#	150
#	23158
#	47466
#	72287
#	102878
#	120929
#	143060
#	167181
#	184365
#	211483
#	233243
#	254606
#	278943
#	304107
#	326033
#
# Disc length: 4781 seconds
#
# Revision: 0
# Processed by: cddbd v1.5.2PL0 Copyright (c) Steve Scherf et al.
# Submitted via: CDex 1.51
#
DISCID=da12ab0f
DTITLE=Chris Spheeris - Greatest Hits CD1
DYEAR=2009
DGENRE=New Age
TTITLE0=Culture
TTITLE1=The Arrow
TTITLE2=Seveness
TTITLE3=Magaya
TTITLE4=Brio
TTITLE5=Through The Wall(With. Paul Voudouris)
TTITLE6=In Violet Light
TTITLE7=Lovers and Friends
TTITLE8=Kingdom In The Clouds
TTITLE9=Dia Del Sol
TTITLE10=Looking Back
TTITLE11=First Kiss
TTITLE12=Alegria
TTITLE13=Psyche 
TTITLE14=Remain In Motion
EXTD=YEAR: 2009
EXTT0=
EXTT1=
EXTT2=
EXTT3=
EXTT4=
EXTT5=
EXTT6=
EXTT7=
EXTT8=
EXTT9=
EXTT10=
EXTT11=
EXTT12=
EXTT13=
EXTT14=
PLAYORDER=
